<svg width="36" height="36" viewBox="0 0 36 36" fill="none" xmlns="http://www.w3.org/2000/svg">
<path fill-rule="evenodd" clip-rule="evenodd" d="M35.6226 22.2418C35.3938 22.1509 35.1326 22.2078 34.9626 22.3857L32.4001 25.0794V9.07988H32.4031L34.8481 6.4398C35.073 6.19672 35.0582 5.81686 34.8148 5.59191L34.8143 5.59136L33.9343 4.77231L35.1571 3.45227C35.3817 3.20892 35.3666 2.82933 35.1233 2.60465L32.4833 0.159586C32.2402 -0.0653648 31.8606 -0.0508075 31.6357 0.192546L27.3697 4.79895H6.60004C6.59811 3.14272 5.25613 1.80071 3.59995 1.79879H3.00009C1.3439 1.80071 0.00192261 3.14272 0 4.79895V30.5996C0 30.9309 0.268616 31.1995 0.600128 31.1995H9.6828L8.42267 32.7126C8.21091 32.9675 8.24551 33.3457 8.50012 33.5575L11.2668 35.8611C11.5214 36.0731 11.8998 36.0385 12.1119 35.7839L12.1122 35.7836L15.1831 32.0941C15.3951 31.8386 15.5316 31.5285 15.5767 31.1995H26.571L22.965 34.9863C22.7368 35.2263 22.7464 35.6062 22.9864 35.8344C23.0979 35.9405 23.246 35.9998 23.4001 35.9995H35.3999C35.7314 35.9995 36 35.7309 36 35.3997V22.7994C36 22.5538 35.8506 22.333 35.6226 22.2418ZM33 6.49067L32 8V26.3399L28.4574 30H15.8664C15.765 29.8338 15.6369 29.6852 15.487 29.5597L14.55 28.7923C13.7735 28.1562 12.6202 28.2598 11.9737 29.0239L11.1464 30H7V6H26.9791L23.7432 9.44093C23.6969 9.49229 23.6601 9.55162 23.6347 9.61561C23.6274 9.63292 23.6218 9.64912 23.6157 9.66725C23.6134 9.67412 23.6107 9.68102 23.6079 9.68801C23.6034 9.69921 23.5989 9.71062 23.5961 9.72246L22.8682 13.1472C22.7995 13.4716 23.0111 13.7893 23.3407 13.8569C23.4387 13.877 23.54 13.8731 23.6358 13.8456L27.0506 12.8665C27.0591 12.8638 27.0669 12.86 27.0746 12.8562L27.0746 12.8562L27.079 12.8541L27.0869 12.8504C27.0895 12.8493 27.0922 12.8482 27.095 12.8473C27.1103 12.8418 27.1262 12.8341 27.1427 12.8261C27.2111 12.7956 27.273 12.7525 27.3255 12.6995L32 7.72843V6.93838L32.6206 6L33 6.49067ZM30.945 5.67334V5.66507H30.9523L32 4.58357L30.2098 3L24 9.41643L25.7902 11L30.945 5.67334ZM25 11.714L24 12L24.2135 11L25 11.714ZM34 2.9461L31.9494 1L31 2.05194L33.0509 4L34 2.9461ZM2.71436 3H3.28564C4.23254 3 5 3.81843 5 4.82821V28C4.50824 27.5966 3.90583 27.3768 3.28564 27.3746H2.71436C2.09391 27.3768 1.49176 27.5966 1 28V4.82821C1 3.81843 1.76746 3 2.71436 3ZM3.28564 28H2.71436C1.76746 28 1 28.8956 1 30H5C5 28.8956 4.23254 28 3.28564 28ZM13.8825 31.5835L13.5581 32L12 30.6123L12.3239 30.1953C12.503 29.9652 12.8226 29.9339 13.0377 30.1255L13.0378 30.1256L13.0381 30.1258L13.8171 30.8179C14.0324 31.0093 14.0619 31.3511 13.883 31.5815L13.8825 31.582V31.5835ZM10 32.6375L11.6372 34L13 32.3628L11.363 31L10 32.6375ZM35 35V24L25 35H35ZM28.5557 33C28.3309 33 28.1282 32.8647 28.0423 32.6572C27.9563 32.4496 28.0039 32.2106 28.1628 32.0516L32.0517 28.1628C32.1557 28.0585 32.2971 28 32.4443 28C32.751 28 33 28.2485 33 28.5554V32.4446C33 32.7513 32.7513 33 32.4443 33H28.5557ZM22.2001 22.8009H26.3999C26.7314 22.8009 27 23.0695 27 23.4007C27 23.7322 26.7314 24.0009 26.4001 24.0009H9.60013C9.26862 24.0009 9 23.7322 9 23.4007C9 23.0695 9.26862 22.8009 9.60013 22.8009H13.7999V16.2007C13.8005 16.0416 13.8634 15.8889 13.9752 15.7758L17.5751 12.1757C17.8094 11.9414 18.1892 11.9414 18.4235 12.1757L22.0235 15.7758C22.1358 15.8886 22.1992 16.0414 22.2001 16.2007V22.8009ZM20 15L18 13L16 15H20ZM15 17H21.0002V22.9997H15V17ZM32 30L30 32H32V30ZM17 10H18V11H17V10ZM18 25H17V26H18V25Z" fill="black"/>
</svg>
